name analog
datacolumns 19
datarows 52
range 0.6155 0.641
endheader
time	ground_force_vx	ground_force_vy	ground_force_vz	ground_force_px	ground_force_py	ground_force_pz	l_ground_force_vx	l_ground_force_vy	l_ground_force_vz	l_ground_force_px	l_ground_force_py	l_ground_force_pz	ground_torque_x	ground_torque_y	ground_torque_z	l_ground_torque_x	l_ground_torque_y	l_ground_torque_z
0.6155	-0.0	-0.0	-0.0	15.020306587219238	20.087251663208008	-212.0926818847656	28.233816146850582	-22.17738151550293	-315.8885803222656	-0.0	-0.0	-0.0	-0.0	-0.0	-0.0	98922.9140625	-50438.29296875	13675.8125
0.616	-0.0	-0.0	-0.0	14.894532203674316	19.09709358215332	-208.49246215820312	28.313549041748047	-21.8302001953125	-315.9473571777344	-0.0	-0.0	-0.0	-0.0	-0.0	-0.0	98675.09375	-50090.56640625	13692.6767578125
0.6165	-0.0	-0.0	-0.0	15.29128074645996	18.33777236938477	-205.85174560546875	27.808048248291016	-21.229633331298828	-315.3193359375	-0.0	-0.0	-0.0	-0.0	-0.0	-0.0	98780.15625	-49938.28515625	13549.0693359375
0.617	-0.0	-0.0	-0.0	15.86931324005127	17.013757705688477	-202.2007598876953	27.266855239868164	-21.17388343811035	-317.451416015625	-0.0	-0.0	-0.0	-0.0	-0.0	-0.0	99275.75	-50068.5625	13511.1533203125
0.6175	-0.0	-0.0	-0.0	16.144838333129883	16.288015365600586	-199.15269470214844	26.333139419555664	-21.838682174682617	-323.35125732421875	-0.0	-0.0	-0.0	-0.0	-0.0	-0.0	100282.5859375	-50287.0703125	13190.27734375
0.618	-0.0	-0.0	-0.0	17.27360725402832	15.46501350402832	-195.038330078125	24.75030899047852	-22.689170837402344	-327.8533935546875	-0.0	-0.0	-0.0	-0.0	-0.0	-0.0	101851.1328125	-50474.4609375	12818.9453125
0.6185	-0.0	-0.0	-0.0	17.786195755004883	15.218717575073242	-194.73399353027344	23.39658546447754	-23.83713722229004	-332.0047607421875	-0.0	-0.0	-0.0	-0.0	-0.0	-0.0	103411.421875	-51050.23828125	12461.771484375
0.619	-0.0	-0.0	-0.0	17.864606857299805	14.962262153625488	-195.7969207763672	22.378084182739254	-24.71706962585449	-340.38385009765625	-0.0	-0.0	-0.0	-0.0	-0.0	-0.0	105495.3671875	-51897.21875	12290.548828125
0.6195	-0.0	-0.0	-0.0	16.236312866210938	15.018360137939451	-196.72122192382807	21.655555725097656	-25.567848205566406	-345.9295959472656	-0.0	-0.0	-0.0	-0.0	-0.0	-0.0	107206.1875	-52793.2421875	12096.5732421875
0.62	-0.0	-0.0	-0.0	14.4408540725708	15.207842826843262	-200.3845672607422	21.56702423095703	-25.45924568176269	-349.8011474609375	-0.0	-0.0	-0.0	-0.0	-0.0	-0.0	108745.609375	-53465.40625	12282.892578125
0.6205	-0.0	-0.0	-0.0	11.642294883728027	14.807029724121094	-202.28189086914065	23.39704322814941	-25.680805206298828	-353.2936096191406	-0.0	-0.0	-0.0	-0.0	-0.0	-0.0	109494.125	-54396.8203125	12884.310546875
0.621	-0.0	-0.0	-0.0	7.227280616760254	13.158949851989746	-200.3401031494141	25.704795837402344	-25.248260498046875	-356.6141967773437	-0.0	-0.0	-0.0	-0.0	-0.0	-0.0	111263.7109375	-55155.53125	13568.7109375
0.6215	-0.0	-0.0	-0.0	3.758599042892456	10.394631385803224	-193.45590209960935	27.113067626953125	-24.95124626159668	-361.5479736328125	-0.0	-0.0	-0.0	-0.0	-0.0	-0.0	112537.6015625	-55904.84375	14162.693359375
0.622	-0.0	-0.0	-0.0	3.578258752822876	8.691263198852539	-185.11355590820312	28.088085174560547	-25.127649307250977	-364.8634643554688	-0.0	-0.0	-0.0	-0.0	-0.0	-0.0	113597.4921875	-56424.63671875	14341.326171875
0.6225	-0.0	-0.0	-0.0	6.844893932342529	7.222243785858154	-179.1959991455078	28.62027740478516	-25.69045066833496	-367.5255737304688	-0.0	-0.0	-0.0	-0.0	-0.0	-0.0	114398.0234375	-56692.6484375	14649.3388671875
0.623	-0.0	-0.0	-0.0	10.30227756500244	6.727809906005859	-177.0771026611328	29.374624252319336	-26.110010147094727	-371.2794494628906	-0.0	-0.0	-0.0	-0.0	-0.0	-0.0	115405.7421875	-57071.65234375	14820.412109375
0.6235	-0.0	-0.0	-0.0	13.534953117370604	6.192736625671387	-178.22161865234375	29.77339553833008	-27.479564666748047	-375.0343933105469	-0.0	-0.0	-0.0	-0.0	-0.0	-0.0	116283.890625	-57034.265625	15127.80859375
0.624	-0.0	-0.0	-0.0	15.221025466918944	6.018370151519775	-177.5150146484375	30.139930725097656	-28.62616729736328	-378.8225402832031	-0.0	-0.0	-0.0	-0.0	-0.0	-0.0	117325.0625	-57347.85546875	15168.55859375
0.6245	-0.0	-0.0	-0.0	16.181121826171875	5.717183589935303	-177.02696228027344	30.12813186645508	-30.24910545349121	-383.6324462890625	-0.0	-0.0	-0.0	-0.0	-0.0	-0.0	118134.078125	-57040.91796875	15223.44140625
0.625	-0.0	-0.0	-0.0	16.16016960144043	5.793476104736328	-176.6214599609375	28.29874038696289	-31.585702896118164	-387.6798400878906	-0.0	-0.0	-0.0	-0.0	-0.0	-0.0	118947.6640625	-56721.3984375	14774.4716796875
0.6255000000000001	-0.0	-0.0	-0.0	15.399276733398438	6.501023769378662	-177.46202087402344	26.659151077270508	-33.37028884887695	-389.8699035644531	-0.0	-0.0	-0.0	-0.0	-0.0	-0.0	119394.0234375	-55900.9921875	14286.0419921875
0.626	-0.0	-0.0	-0.0	15.19998836517334	7.151220321655273	-179.76858520507812	24.36174964904785	-34.39950942993164	-388.3055725097656	-0.0	-0.0	-0.0	-0.0	-0.0	-0.0	118468.8671875	-54778.90625	13614.3125
0.6265000000000001	-0.0	-0.0	-0.0	15.076576232910156	8.865194320678711	-184.8227996826172	21.97914123535156	-35.73664474487305	-386.5108642578125	-0.0	-0.0	-0.0	-0.0	-0.0	-0.0	117054.8046875	-52858.671875	12658.966796875
0.627	-0.0	-0.0	-0.0	14.754057884216309	10.634011268615724	-192.48306274414065	19.617883682250977	-36.65350341796875	-382.7205810546875	-0.0	-0.0	-0.0	-0.0	-0.0	-0.0	115106.625	-51048.26171875	12077.9072265625
0.6275000000000001	-0.0	-0.0	-0.0	13.765277862548828	13.286864280700684	-202.8614501953125	18.193584442138672	-37.63800048828125	-376.3032531738281	-0.0	-0.0	-0.0	-0.0	-0.0	-0.0	112896.4921875	-49090.69921875	11453.6982421875
0.628	-0.0	-0.0	-0.0	11.268842697143556	16.76264762878418	-217.52708435058597	16.847476959228516	-38.26396942138672	-371.5714111328125	-0.0	-0.0	-0.0	-0.0	-0.0	-0.0	110419.265625	-46935.18359375	10927.45703125
0.6285000000000001	-0.0	-0.0	-0.0	7.246252059936523	19.84160614013672	-234.2382659912109	15.066170692443848	-38.44051742553711	-364.8057556152344	-0.0	-0.0	-0.0	-0.0	-0.0	-0.0	107514.1484375	-44676.46484375	10298.8349609375
0.629	-0.0	-0.0	-0.0	2.36304235458374	23.53595352172852	-247.1109619140625	13.374798774719238	-38.4608154296875	-358.5253295898437	-0.0	-0.0	-0.0	-0.0	-0.0	-0.0	104814.953125	-42610.55859375	9649.6259765625
0.6295000000000001	-0.0	-0.0	-0.0	-0.7535991668701172	27.67030334472656	-260.9628295898437	12.01009464263916	-38.04630279541016	-348.93682861328125	-0.0	-0.0	-0.0	-0.0	-0.0	-0.0	101636.7578125	-40267.66796875	9028.162109375
0.63	-0.0	-0.0	-0.0	-2.071678400039673	32.908935546875	-275.7747497558594	10.249825477600098	-37.49627304077149	-340.5027770996094	-0.0	-0.0	-0.0	-0.0	-0.0	-0.0	98238.4765625	-37776.15625	8290.111328125
0.6305000000000001	-0.0	-0.0	-0.0	-1.5212007761001587	38.26123428344727	-295.7261657714844	8.475899696350098	-36.83014678955078	-329.3848876953125	-0.0	-0.0	-0.0	-0.0	-0.0	-0.0	94198.171875	-35125.7265625	7351.3271484375
0.631	-0.0	-0.0	-0.0	-1.6601910591125488	45.06083297729492	-323.6250915527344	6.667557716369629	-36.44268798828125	-315.8803100585937	-0.0	-0.0	-0.0	-0.0	-0.0	-0.0	90140.4296875	-32356.396484375	6663.18310546875
0.6315000000000001	-0.0	-0.0	-0.0	-1.4662632942199707	52.2887077331543	-354.3482360839844	4.326902389526367	-35.288997650146484	-301.2179260253906	-0.0	-0.0	-0.0	-0.0	-0.0	-0.0	84851.3359375	-29303.380859375	5562.46484375
0.632	-0.0	-0.0	-0.0	-0.7486259937286377	59.15509414672852	-387.944580078125	2.203123092651367	-33.73374938964844	-285.1009826660156	-0.0	-0.0	-0.0	-0.0	-0.0	-0.0	79652.375	-26280.345703125	4500.20751953125
0.6325000000000001	-0.0	-0.0	-0.0	-0.0192293003201484	65.30109405517578	-420.5262451171875	0.0492928028106689	-32.046043395996094	-267.06231689453125	-0.0	-0.0	-0.0	-0.0	-0.0	-0.0	73678.5859375	-23094.912109375	3597.72705078125
0.633	-0.0	-0.0	-0.0	0.9142924547195436	71.96636199951172	-455.9043273925781	-1.1141120195388794	-29.6267204284668	-244.71942138671875	-0.0	-0.0	-0.0	-0.0	-0.0	-0.0	67199.3828125	-19972.20703125	2785.12109375
0.6335000000000001	-0.0	-0.0	-0.0	2.6601898670196533	77.31971740722656	-488.89886474609375	-2.0598156452178955	-26.70332336425781	-224.623779296875	-0.0	-0.0	-0.0	-0.0	-0.0	-0.0	60700.7734375	-16503.990234375	2152.159912109375
0.634	-0.0	-0.0	-0.0	4.263238906860352	82.27247619628906	-515.8667602539062	-2.079042911529541	-24.342256546020508	-200.09263610839844	-0.0	-0.0	-0.0	-0.0	-0.0	-0.0	54310.4765625	-13919.18359375	1605.7938232421875
0.6345000000000001	-0.0	-0.0	-0.0	6.190770626068115	87.0286865234375	-542.0745239257812	-2.464699506759644	-21.404815673828125	-180.5725860595703	-0.0	-0.0	-0.0	-0.0	-0.0	-0.0	48037.87109375	-11573.140625	1156.1290283203125
0.635	-0.0	-0.0	-0.0	7.761314392089844	91.14904022216795	-565.728271484375	-3.263193368911743	-18.97014045715332	-160.8568572998047	-0.0	-0.0	-0.0	-0.0	-0.0	-0.0	41945.21875	-9305.73828125	467.48541259765625
0.6355000000000001	-0.0	-0.0	-0.0	9.439424514770508	95.87214660644533	-586.9913330078125	-3.991985321044922	-16.623353958129883	-141.95545959472656	-0.0	-0.0	-0.0	-0.0	-0.0	-0.0	37035.0390625	-7468.6455078125	88.27098846435547
0.636	-0.0	-0.0	-0.0	10.831232070922852	99.20213317871094	-604.794921875	-4.879093170166016	-13.84774684906006	-125.9695816040039	-0.0	-0.0	-0.0	-0.0	-0.0	-0.0	32197.390625	-6069.17529296875	-440.2659912109375
0.6365000000000001	-0.0	-0.0	-0.0	11.419987678527832	103.23229217529295	-623.7158203125	-5.836167335510254	-11.958257675170898	-107.25345611572266	-0.0	-0.0	-0.0	-0.0	-0.0	-0.0	28236.91015625	-5063.953125	-897.1092529296875
0.637	-0.0	-0.0	-0.0	11.615479469299316	106.333251953125	-637.28271484375	-7.187716484069824	-10.261699676513672	-91.95641326904295	-0.0	-0.0	-0.0	-0.0	-0.0	-0.0	24108.845703125	-4026.747314453125	-1229.4468994140625
0.6375000000000001	-0.0	-0.0	-0.0	10.616050720214844	110.02291870117188	-648.2974243164062	-8.961690902709961	-8.195494651794434	-77.37349700927734	-0.0	-0.0	-0.0	-0.0	-0.0	-0.0	20049.28125	-3395.388427734375	-1771.008056640625
0.638	-0.0	-0.0	-0.0	9.563553810119627	112.10816192626952	-658.4685668945312	-10.308834075927734	-6.059186458587647	-62.14268112182617	-0.0	-0.0	-0.0	-0.0	-0.0	-0.0	16486.236328125	-2520.052001953125	-2245.967529296875
0.6385000000000001	-0.0	-0.0	-0.0	8.278596878051758	113.74812316894533	-667.3677368164062	-11.67458724975586	-3.851072311401367	-49.44084548950195	-0.0	-0.0	-0.0	-0.0	-0.0	-0.0	12870.0361328125	-1971.771728515625	-2880.59423828125
0.639	-0.0	-0.0	-0.0	7.42212438583374	115.29852294921876	-673.6538696289062	-13.361039161682127	-1.0408077239990234	-36.7244758605957	-0.0	-0.0	-0.0	-0.0	-0.0	-0.0	9826.46875	-1392.51416015625	-3385.734375
0.6395000000000001	-0.0	-0.0	-0.0	7.297755718231201	115.83370208740234	-681.2808227539062	-14.176363945007324	0.8300976753234863	-27.372987747192383	-0.0	-0.0	-0.0	-0.0	-0.0	-0.0	7314.86279296875	-951.0416870117188	-3836.74462890625
0.64	-0.0	-0.0	-0.0	7.709157943725586	116.2607879638672	-684.5360107421875	-0.0	-0.0	-0.0	-0.0	-0.0	-0.0	-0.0	-0.0	-0.0	-0.0	-0.0	-0.0
0.6405	-0.0	-0.0	-0.0	8.794495582580566	117.15328216552734	-688.7802734375	-0.0	-0.0	-0.0	-0.0	-0.0	-0.0	-0.0	-0.0	-0.0	-0.0	-0.0	-0.0
0.641	-0.0	-0.0	-0.0	9.370599746704102	117.43961334228516	-690.2562866210938	-0.0	-0.0	-0.0	-0.0	-0.0	-0.0	-0.0	-0.0	-0.0	-0.0	-0.0	-0.0
